# xmcd
#
# Track frame offsets:
#	150
#	16525
#	33185
#	49737
#	67252
#	106110
#	122345
#	142217
#	158762
#	176240
#
# Disc length: 2720 seconds
#
# Revision: 4
# Processed by: cddbd v1.5.2PL0 Copyright (c) Steve Scherf et al.
# Submitted via: EasyCDDAExtractor 15.3.0.1
#
DISCID=7f0a9e0a
DTITLE=Selena - Anthology - CD 1 - Pop, English
DYEAR=1998
DGENRE=Latin
TTITLE0=Always Mine
TTITLE1=No Quiero Saber
TTITLE2=Don't Throw Away My Love
TTITLE3=La Bamba
TTITLE4=I'm Getting Used To You (Club Remix)
TTITLE5=Yo Fui Aquella
TTITLE6=Captive Heart
TTITLE7=Amame
TTITLE8=Missing My Baby
TTITLE9=Disco Medley (Last Dance, The Hustle, On The Radio) (Club Remix)
EXTD=
EXTT0=
EXTT1=
EXTT2=
EXTT3=
EXTT4=
EXTT5=
EXTT6=
EXTT7=
EXTT8=
EXTT9=
PLAYORDER=
